<?xml version="1.0" encoding="UTF-8" standalone="no"?>
<svg xmlns:xlink="http://www.w3.org/1999/xlink" height="13.0px" width="71.0px" xmlns="http://www.w3.org/2000/svg">
  <g transform="matrix(1.0, 0.0, 0.0, 1.0, -2.0, -26.1)">
    <path d="M57.0 26.1 L57.0 39.1 54.0 39.1 54.0 26.1 57.0 26.1 M45.0 26.1 L45.0 39.1 42.0 39.1 42.0 26.1 45.0 26.1 M49.0 26.1 L49.0 39.1 46.0 39.1 46.0 26.1 49.0 26.1 M58.0 26.1 L61.0 26.1 61.0 39.1 58.0 39.1 58.0 26.1 M50.0 26.1 L53.0 26.1 53.0 39.1 50.0 39.1 50.0 26.1 M41.0 39.1 L38.0 39.1 38.0 26.1 41.0 26.1 41.0 39.1 M65.0 26.1 L65.0 39.1 62.0 39.1 62.0 26.1 65.0 26.1 M69.0 26.1 L69.0 39.1 66.0 39.1 66.0 26.1 69.0 26.1 M73.0 26.1 L73.0 39.1 70.0 39.1 70.0 26.1 73.0 26.1 M17.0 26.1 L17.0 39.1 14.0 39.1 14.0 26.1 17.0 26.1 M9.0 26.1 L9.0 39.1 6.0 39.1 6.0 26.1 9.0 26.1 M5.0 26.1 L5.0 39.1 2.0 39.1 2.0 26.1 5.0 26.1 M18.0 26.1 L21.0 26.1 21.0 39.1 18.0 39.1 18.0 26.1 M10.0 26.1 L13.0 26.1 13.0 39.1 10.0 39.1 10.0 26.1 M37.0 26.1 L37.0 39.1 34.0 39.1 34.0 26.1 37.0 26.1 M25.0 26.1 L25.0 39.1 22.0 39.1 22.0 26.1 25.0 26.1 M29.0 26.1 L29.0 39.1 26.0 39.1 26.0 26.1 29.0 26.1 M33.0 39.1 L30.0 39.1 30.0 26.1 33.0 26.1 33.0 39.1" fill="#ff0000" fill-rule="evenodd" stroke="none"/>
  </g>
</svg>
