<?xml version="1.0" encoding="UTF-8" standalone="no"?>
<svg xmlns:xlink="http://www.w3.org/1999/xlink" height="1.0px" width="71.0px" xmlns="http://www.w3.org/2000/svg">
  <g transform="matrix(1.0, 0.0, 0.0, 1.0, -2.0, -24.1)">
    <path d="M65.0 24.1 L65.0 25.1 62.0 25.1 62.0 24.1 65.0 24.1 M69.0 24.1 L69.0 25.1 66.0 25.1 66.0 24.1 69.0 24.1 M73.0 24.1 L73.0 25.1 70.0 25.1 70.0 24.1 73.0 24.1 M45.0 24.1 L45.0 25.1 42.0 25.1 42.0 24.1 45.0 24.1 M49.0 24.1 L49.0 25.1 46.0 25.1 46.0 24.1 49.0 24.1 M57.0 24.1 L57.0 25.1 54.0 25.1 54.0 24.1 57.0 24.1 M53.0 24.1 L53.0 25.1 50.0 25.1 50.0 24.1 53.0 24.1 M61.0 24.1 L61.0 25.1 58.0 25.1 58.0 24.1 61.0 24.1 M41.0 25.1 L38.0 25.1 38.0 24.1 41.0 24.1 41.0 25.1 M25.0 24.1 L25.0 25.1 22.0 25.1 22.0 24.1 25.0 24.1 M29.0 24.1 L29.0 25.1 26.0 25.1 26.0 24.1 29.0 24.1 M37.0 24.1 L37.0 25.1 34.0 25.1 34.0 24.1 37.0 24.1 M33.0 24.1 L33.0 25.1 30.0 25.1 30.0 24.1 33.0 24.1 M5.0 24.1 L5.0 25.1 2.0 25.1 2.0 24.1 5.0 24.1 M9.0 24.1 L9.0 25.1 6.0 25.1 6.0 24.1 9.0 24.1 M17.0 24.1 L17.0 25.1 14.0 25.1 14.0 24.1 17.0 24.1 M13.0 24.1 L13.0 25.1 10.0 25.1 10.0 24.1 13.0 24.1 M21.0 24.1 L21.0 25.1 18.0 25.1 18.0 24.1 21.0 24.1" fill="#dc9203" fill-rule="evenodd" stroke="none"/>
  </g>
</svg>
