<?xml version="1.0" encoding="UTF-8" standalone="no"?>
<svg xmlns:xlink="http://www.w3.org/1999/xlink" height="15.0px" width="131.0px" xmlns="http://www.w3.org/2000/svg">
  <g transform="matrix(1.0, 0.0, 0.0, 1.0, -85.55, 2.5)">
    <path d="M85.55 5.0 Q85.25 8.1 103.85 10.25 123.8 12.5 151.05 12.5 177.95 12.5 196.9 10.25 216.5 8.1 216.55 5.0 216.5 1.9 196.9 -0.3 177.95 -2.5 151.05 -2.5 123.8 -2.5 103.85 -0.3 85.25 1.9 85.55 5.0" fill="#dcb503" fill-opacity="0.3019608" fill-rule="evenodd" stroke="none">
      <animate attributeName="fill" dur="2s" repeatCount="indefinite" values="#dcb503;#dcb504"/>
      <animate attributeName="fill-opacity" dur="2s" repeatCount="indefinite" values="0.3019608;0.0"/>
      <animate attributeName="d" dur="2s" repeatCount="indefinite" values="M85.55 5.0 Q85.25 8.1 103.85 10.25 123.8 12.5 151.05 12.5 177.95 12.5 196.9 10.25 216.5 8.1 216.55 5.0 216.5 1.9 196.9 -0.3 177.95 -2.5 151.05 -2.5 123.8 -2.5 103.85 -0.3 85.25 1.9 85.55 5.0;M85.55 5.0 Q85.25 8.1 103.85 10.25 123.8 12.5 151.05 12.5 177.95 12.5 196.9 10.25 216.5 8.1 216.55 5.0 216.5 1.9 196.9 -0.3 177.95 -2.5 151.05 -2.5 123.8 -2.5 103.85 -0.3 85.25 1.9 85.55 5.0"/>
    </path>
    <path d="M85.55 5.0 Q85.25 1.9 103.85 -0.3 123.8 -2.5 151.05 -2.5 177.95 -2.5 196.9 -0.3 216.5 1.9 216.55 5.0 216.5 8.1 196.9 10.25 177.95 12.5 151.05 12.5 123.8 12.5 103.85 10.25 85.25 8.1 85.55 5.0" fill="none" stroke="#000000" stroke-linecap="round" stroke-linejoin="round" stroke-opacity="0.0" stroke-width="1.0">
      <animate attributeName="stroke" dur="2s" repeatCount="indefinite" values="#000000;#000001"/>
      <animate attributeName="stroke-width" dur="2s" repeatCount="indefinite" values="0.0;0.0"/>
      <animate attributeName="fill-opacity" dur="2s" repeatCount="indefinite" values="0.0;0.0"/>
      <animate attributeName="d" dur="2s" repeatCount="indefinite" values="M85.55 5.0 Q85.25 1.9 103.85 -0.3 123.8 -2.5 151.05 -2.5 177.95 -2.5 196.9 -0.3 216.5 1.9 216.55 5.0 216.5 8.1 196.9 10.25 177.95 12.5 151.05 12.5 123.8 12.5 103.85 10.25 85.25 8.1 85.55 5.0;M85.55 5.0 Q85.25 1.9 103.85 -0.3 123.8 -2.5 151.05 -2.5 177.95 -2.5 196.9 -0.3 216.5 1.9 216.55 5.0 216.5 8.1 196.9 10.25 177.95 12.5 151.05 12.5 123.8 12.5 103.85 10.25 85.25 8.1 85.55 5.0"/>
    </path>
  </g>
</svg>
